<svg xmlns="http://www.w3.org/2000/svg" width="20" height="20" viewBox="0 0 256 256"><path d="M168-192c-19.8 0-36.75-7.054-50.85-21.162C103.05-227.27 96-244.229 96-264.04v-432.243C96-716.094 103.05-733 117.15-747c14.1-14 31.05-21 50.85-21h624c19.8 0 36.75 7.054 50.85 21.162C856.95-732.73 864-715.771 864-695.96v432.243c0 19.811-7.05 36.717-21.15 50.717-14.1 14-31.05 21-50.85 21zm312-240L168-611v347h624v-347zm0-85 312-179H168zm-312-94v-85 432z" transform="translate(0 256) scale(.26667)" fill="#0f1029" stroke-miterlimit="10" font-family="none" font-weight="none" font-size="none" text-anchor="none" style="mix-blend-mode:normal"/></svg>