<svg version="1.1" xmlns="http://www.w3.org/2000/svg" xmlns:xlink="http://www.w3.org/1999/xlink" width="20" height="20" viewBox="0,0,256,256"><g fill="#c8c8c8" fill-rule="nonzero" stroke="none" stroke-width="1" stroke-linecap="butt" stroke-linejoin="miter" stroke-miterlimit="10" stroke-dasharray="" stroke-dashoffset="0" font-family="none" font-weight="none" font-size="none" text-anchor="none" style="mix-blend-mode: normal"><g transform="translate(0,256) scale(0.26667,0.26667)"><path d="M168,-192c-19.8,0 -36.75,-7.054 -50.85,-21.162c-14.1,-14.108 -21.15,-31.06733 -21.15,-50.878v-432.243c0,-19.81133 7.05,-36.717 21.15,-50.717c14.1,-14 31.05,-21 50.85,-21h624c19.8,0 36.75,7.054 50.85,21.162c14.1,14.108 21.15,31.06733 21.15,50.878v432.243c0,19.81133 -7.05,36.717 -21.15,50.717c-14.1,14 -31.05,21 -50.85,21zM480,-432l-312,-179v347h624v-347zM480,-517l312,-179h-624zM168,-611v-85v432z"></path></g></g></svg>